<svg t="1753682456923" class="icon" viewBox="0 0 1024 1024" version="1.1" xmlns="http://www.w3.org/2000/svg" p-id="1385" width="200" height="200"><path d="M211.97837653 812.54591147h600.8242176V211.60700587H211.97837653v600.9389056z m81.9593216-518.9632h436.90666667v436.994048h-436.90666667v-436.994048z m-177.39175253 27.26843733c22.61538133 0 40.89992533-18.284544 40.89992533-40.90538667V157.0635776h122.8537856c22.62084267 0 40.90538667-18.284544 40.90538667-40.910848s-18.284544-40.910848-40.90538667-40.910848H116.5459456c-22.626304 0-40.90538667 18.284544-40.90538667 40.910848v163.94594987c-0.15291733 22.46792533 18.13162667 40.75246933 40.90538667 40.75246933z m163.7548032 546.24365227H157.4469632V744.21261653c0-22.63176533-18.284544-40.91630933-40.89992533-40.91630933-22.626304 0-40.90538667 18.284544-40.90538667 40.91630933v163.7875712c0 22.626304 18.27908267 40.910848 40.90538667 40.910848h163.91318186c22.626304 0 40.90538667-18.284544 40.90538667-40.910848-0.15947093-22.62084267-18.44401493-40.90538667-41.0648576-40.90538666zM908.38903467 75.087872H744.4758528c-22.61538133 0-40.89992533 18.284544-40.89992533 40.90538667 0 22.626304 18.284544 40.910848 40.89992533 40.910848h122.86470827v122.8865536c0 22.62084267 18.27908267 40.90538667 40.89992533 40.90538666 22.61538133 0 40.89992533-18.284544 40.89992533-40.90538666v-163.79630934c0.1540096-22.62084267-18.12507307-40.90647893-40.75137706-40.90647893z m0 628.2084352c-22.61538133 0-40.89992533 18.284544-40.89992534 40.91630933v122.88109227H744.63423147c-22.626304 0-40.89992533 18.284544-40.89992534 40.90538667 0 22.626304 18.27362133 40.910848 40.89992534 40.910848h163.9186432c22.61538133 0 40.89992533-18.284544 40.89992533-40.910848V744.21261653c-0.15837867-22.63176533-18.43746133-40.91630933-41.06376533-40.91630933z m0 0" fill="#999999" p-id="1386"></path></svg>