<svg t="1753685709609" class="icon" viewBox="0 0 1024 1024" version="1.1" xmlns="http://www.w3.org/2000/svg" p-id="20099" id="mx_n_1753685709610" width="128" height="128"><path d="M977.824 454.016C826.432 280.288 672.512 192 516.128 192c-156.384 0-310.304 88.288-461.696 262.016a112 112 0 0 0-1.632 145.248c138.24 165.984 293.088 250.24 463.328 250.24s325.088-84.256 463.328-250.24a112 112 0 0 0-1.632-145.248z m-47.552 104.32c-126.848 152.32-264.48 227.2-414.144 227.2s-287.296-74.88-414.144-227.2a48 48 0 0 1 0.704-62.24C243.008 335.072 380.8 256 516.128 256s273.152 79.072 413.44 240.064c15.488 17.792 15.776 44.16 0.704 62.272z" p-id="20100" fill="#999999"></path><path d="M512 288a224 224 0 1 0 0 448 224 224 0 0 0 0-448z m-64 224a64 64 0 1 1 0.032-128.032A64 64 0 0 1 448 512z" p-id="20101" fill="#999999"></path></svg>