<svg t="1753264929931" class="icon" viewBox="0 0 1024 1024" version="1.1" xmlns="http://www.w3.org/2000/svg" p-id="17684" width="64" height="64"><path d="M942.272 592.192a34.944 34.944 0 0 1 17.472 30.336v249.92c0 48.128-39.168 87.296-87.424 87.296H152.32a87.424 87.424 0 0 1-87.36-87.424V622.528a34.944 34.944 0 1 1 69.888 0v249.92c0 9.6 7.808 17.472 17.536 17.472h720a17.472 17.472 0 0 0 17.536-17.536V622.528a34.944 34.944 0 0 1 52.48-30.336zM512.768 64.96c9.344 0 18.304 3.776 24.896 10.432l236.8 237.696a34.944 34.944 0 0 1-24.448 59.392 34.944 34.944 0 0 1-24.512-10.496L547.264 184.512v534.08a34.944 34.944 0 0 1-34.944 35.008 34.944 34.944 0 0 1-34.944-35.072V184.448L299.072 361.984a35.2 35.2 0 0 1-49.792-49.792l238.592-236.8a34.944 34.944 0 0 1 24.896-10.432z" fill="#999999" p-id="17685"></path></svg>