<svg t="1753245094563" class="icon" viewBox="0 0 1024 1024" version="1.1" xmlns="http://www.w3.org/2000/svg" p-id="17404" width="64" height="64"><path d="M338.688 704c-8.192 0-16.128-3.328-22.016-9.216-6.656-6.912-9.728-16.384-8.448-26.112l27.904-187.904c1.024-6.4 4.096-12.544 8.704-17.152L720.128 88.32c17.408-17.408 40.448-26.88 65.28-26.88 24.576 0 47.872 9.472 65.28 26.88l76.544 76.544c35.84 35.84 35.84 94.464 0 130.304L551.936 670.464c-4.864 4.864-11.008 7.936-17.92 8.704l-191.488 24.32c-1.28 0.256-2.56 0.512-3.84 0.512z m56.832-204.032l-20.48 137.728 140.8-17.92L883.712 251.904c12.032-12.032 12.032-31.488 0-43.52l-76.544-76.544c-5.888-5.888-13.568-8.96-21.76-8.96s-15.872 3.072-21.76 8.96L395.52 499.968z" fill="#999999" p-id="17405"></path><path d="M660.09088 212.12672l43.4432-43.4432 145.3568 145.3568-43.4432 43.4432zM380.9536 491.2896l43.4432-43.4432 145.3568 145.3568-43.4432 43.4432z" fill="#999999" p-id="17406"></path><path d="M828.928 948.48H190.464c-66.56 0-120.832-54.272-120.832-120.832V228.096c0-66.56 54.272-120.832 120.832-120.832h320.256c16.896 0 30.72 13.824 30.72 30.72s-13.824 30.72-30.72 30.72H190.464c-32.768 0-59.392 26.624-59.392 59.392v599.552c0 32.768 26.624 59.392 59.392 59.392h638.208c32.768 0 59.392-26.624 59.392-59.392V460.032c0-16.896 13.824-30.72 30.72-30.72s30.72 13.824 30.72 30.72v367.616c0.256 66.56-54.016 120.832-120.576 120.832z" fill="#999999" p-id="17407"></path></svg>