<svg t="1753675117590" class="icon" viewBox="0 0 1024 1024" version="1.1" xmlns="http://www.w3.org/2000/svg" p-id="20736" width="200" height="200"><path d="M746.666667 512a234.666667 234.666667 0 1 1 0 469.333333 234.666667 234.666667 0 0 1 0-469.333333zM512 85.333333c235.690667 0 426.752 191.061333 426.752 426.752 0 11.221333-0.426667 22.357333-1.28 33.365334a277.632 277.632 0 0 0-62.933333-44.885334 362.709333 362.709333 0 1 0-373.973334 374.058667 277.333333 277.333333 0 0 0 44.8 62.890667c-10.965333 0.853333-22.101333 1.28-33.365333 1.28-235.690667 0-426.752-191.061333-426.752-426.709334C85.248 276.352 276.309333 85.290667 512 85.290667z m234.666667 512l-3.84 0.341334a21.333333 21.333333 0 0 0-17.152 17.152L725.333333 618.666667V725.333333L618.581333 725.333333l-3.84 0.341334a21.333333 21.333333 0 0 0-17.152 17.152l-0.341333 3.84 0.341333 3.84a21.333333 21.333333 0 0 0 17.152 17.152l3.84 0.341333H725.333333v106.794667l0.341334 3.84a21.333333 21.333333 0 0 0 17.152 17.152l3.84 0.341333 3.84-0.341333a21.333333 21.333333 0 0 0 17.152-17.152l0.341333-3.84V768l106.837333 0.042667 3.84-0.341334a21.333333 21.333333 0 0 0 17.152-17.152l0.341334-3.84-0.341334-3.84a21.333333 21.333333 0 0 0-17.152-17.152l-3.84-0.341333H768v-106.666667l-0.341333-3.84a21.333333 21.333333 0 0 0-17.152-17.194666L746.666667 597.333333z m-385.621334 33.493334a191.744 191.744 0 0 0 112.213334 69.376 275.157333 275.157333 0 0 0-3.370667 64.426666 255.274667 255.274667 0 0 1-159.146667-94.208 32 32 0 0 1 50.304-39.594666zM384 373.333333a53.333333 53.333333 0 1 1 0 106.624A53.333333 53.333333 0 0 1 384 373.333333z m256 0a53.333333 53.333333 0 1 1 0 106.624 53.333333 53.333333 0 0 1 0-106.624z" p-id="20737" fill="#999999"></path></svg>