<svg t="1753173153974" class="icon" viewBox="0 0 1024 1024" version="1.1" xmlns="http://www.w3.org/2000/svg" p-id="23932" width="64" height="64"><path d="M173.421714 54.857143A46.628571 46.628571 0 0 0 128 100.333714v819.108572a43.483429 43.483429 0 0 0 13.641143 31.817143 44.598857 44.598857 0 0 0 31.780571 13.677714h666.368a43.446857 43.446857 0 0 0 31.762286-13.659429 44.982857 44.982857 0 0 0 13.641143-31.817143V312.612571L627.748571 54.857143H173.403429z" fill="#FE5359" p-id="23933"></path><path d="M885.211429 312.649143H673.170286a46.628571 46.628571 0 0 1-45.458286-45.476572V54.857143l257.462857 257.792z" fill="#FFFFFF" fill-opacity=".7" p-id="23934"></path><path d="M326.454857 502.125714c16.146286 0 30.189714 2.706286 42.130286 8.155429 11.940571 5.266286 21.065143 12.8 27.373714 22.637714 6.509714 9.837714 9.746286 21.321143 9.746286 34.486857s-3.236571 24.685714-9.746286 34.505143c-6.308571 9.819429-15.433143 17.462857-27.373714 22.912-11.940571 5.266286-25.984 7.899429-42.130286 7.899429h-24.758857V694.857143h-45.019429V502.125714h69.778286z m-5.010286 92.672c10.88 0 19.748571-2.102857 26.605715-6.326857 6.838857-4.205714 10.258286-11.227429 10.258285-21.065143 0-9.654857-3.510857-16.585143-10.532571-20.790857-6.838857-4.388571-15.616-6.582857-26.331429-6.582857H301.714286v54.765714h19.748571z m177.792-92.690285c18.797714 0 35.821714 3.785143 51.090286 11.337142a85.504 85.504 0 0 1 36.077714 33.170286c8.96 14.390857 13.421714 31.597714 13.421715 51.602286 0 20.022857-4.461714 37.302857-13.421715 51.876571a87.241143 87.241143 0 0 1-36.077714 33.444572c-15.104 7.552-32.128 11.318857-51.090286 11.318857h-69.504V502.125714h69.504z m-4.992 154.825142c19.126857 0 33.609143-5.083429 43.446858-15.268571 9.819429-10.185143 14.738286-24.667429 14.738285-43.446857 0-18.596571-4.992-32.914286-14.994285-42.916572-9.837714-10.185143-24.228571-15.268571-43.190858-15.268571h-19.492571v116.900571h19.492571z m134.765715-154.825142h129.024v39.241142h-83.986286v42.130286h75.300571v38.966857h-75.300571V694.857143h-45.037714V502.125714z" fill="#FFFFFF" p-id="23935"></path></svg>