<svg t="1753265048804" class="icon" viewBox="0 0 1024 1024" version="1.1" xmlns="http://www.w3.org/2000/svg" p-id="24268" width="64" height="64"><path d="M907.002003 0.000731a95.085239 95.085239 0 0 1 95.085239 87.77099v299.884215h-614.396928v621.711177h-292.569966a95.450951 95.450951 0 0 1-95.085239-87.77099V95.08597a90.696689 90.696689 0 0 1 87.77099-95.085239h819.195904z m-599.76843 694.853669h-234.055973v219.427474c0 7.314249 7.314249 14.628498 14.628499 21.942748h219.427474V694.8544z m0-307.198464h-234.055973v234.055973h234.055973V387.655936z m0-314.512713h-212.113225c-7.314249 0-14.628498 7.314249-21.942748 14.628498v219.427474h234.055973V73.143223z m307.198464 0h-226.741723v234.055972h234.055972V73.143223z m292.569966 0h-212.113225v234.055972h234.055972V95.08597l-21.942747-21.942747z" p-id="24269" fill="#999999"></path><path d="M746.088522 468.039534a57.709426 57.709426 0 0 1 58.513993 58.513993v168.227731h168.22773a48.932327 48.932327 0 0 1 51.199744 43.885494v7.31425a57.709426 57.709426 0 0 1-58.513993 58.513993h-168.22773v168.22773a48.932327 48.932327 0 0 1-43.885495 51.199744h-7.314249a57.709426 57.709426 0 0 1-58.513994-58.513993v-168.22773h-168.22773a48.932327 48.932327 0 0 1-51.199744-43.885495v-7.314249a57.709426 57.709426 0 0 1 58.513993-58.513994h168.227731v-168.22773a48.932327 48.932327 0 0 1 43.885494-51.199744h7.31425z" p-id="24270" fill="#999999"></path></svg>