<svg t="1753243650812" class="icon" viewBox="0 0 1024 1024" version="1.1" xmlns="http://www.w3.org/2000/svg" p-id="13151" width="64" height="64"><path d="M165.489778 80.156444A128 128 0 0 1 256 42.666667h341.333333a42.666667 42.666667 0 0 1 30.151111 12.515555l256 256c7.964444 7.964444 12.515556 18.830222 12.515556 30.151111v512a128 128 0 0 1-128 128h-62.065778a42.666667 42.666667 0 1 1 0-85.333333H768a42.666667 42.666667 0 0 0 42.666667-42.666667V354.645333q-26.225778-26.225778-230.058667-226.645333H256a42.666667 42.666667 0 0 0-42.666667 42.666667v682.666666a42.666667 42.666667 0 0 0 42.666667 42.666667h62.065778a42.666667 42.666667 0 0 1 0 85.333333H256A128 128 0 0 1 128 853.333333V170.666667c0-33.962667 13.482667-66.503111 37.489778-90.510223z" p-id="13152" fill="#999999"></path><path d="M340.593778 625.038222a36.010667 36.010667 0 0 0 50.972444 50.972445l84.423111-84.423111V961.422222a36.010667 36.010667 0 1 0 72.021334 0V591.644444l84.423111 84.423112a36.010667 36.010667 0 1 0 50.972444-50.972445L537.486222 479.118222a36.010667 36.010667 0 0 0-50.972444 0l-145.92 145.92z" p-id="13153" fill="#999999"></path><path d="M545.109333 316.302222V92.501333h77.198223v223.914667H840.135111v77.255111H622.364444c-42.666667 0-77.198222-34.588444-77.198222-77.255111z" p-id="13154" fill="#999999"></path></svg>